<svg id="Layer_1" data-name="Layer 1" xmlns="http://www.w3.org/2000/svg" viewBox="0 0 2009.88 202.5"><defs><style>.cls-1{isolation:isolate;}.cls-2{fill:#fff;}</style></defs><g class="cls-1"><path class="cls-2" d="M387.89,94.61l25.59.08a6.42,6.42,0,0,1,6.4,6.43V290.66a6.43,6.43,0,0,1-6.43,6.43H401.71a19.3,19.3,0,0,1-19.3-19.3V139.27l-97.53,75.54c-9.62,7.45-24.66,11.49-36.82,11.49s-27.22-4-36.84-11.49L113.7,139.27V277.79a19.3,19.3,0,0,1-19.3,19.3H82.66a6.43,6.43,0,0,1-6.43-6.43V101.14a6.43,6.43,0,0,1,6.43-6.44h21.23a38.54,38.54,0,0,1,23.56,8c13.25,10.21,46.07,33.13,111.86,84.09,7,5.45,13.65,5.46,20.69,0,29.86-23.14,83.63-64.78,112.18-86.89A25.4,25.4,0,0,1,387.89,94.61Z" transform="translate(-76.23 -94.61)"/><path class="cls-2" d="M651.64,94.61h144.2a96.5,96.5,0,0,1,96.51,96.51v9.37A96.5,96.5,0,0,1,795.84,297H651.64a96.51,96.51,0,0,1-96.51-96.51v-9.37A96.5,96.5,0,0,1,651.64,94.61ZM854.88,200.55v-9.49a56,56,0,0,0-56-56H648.58a56,56,0,0,0-56,56v9.49a56,56,0,0,0,56,56H798.91A56,56,0,0,0,854.88,200.55Z" transform="translate(-76.23 -94.61)"/><path class="cls-2" d="M1346.89,94.61h11.73a6.43,6.43,0,0,1,6.43,6.44V277.7a19.3,19.3,0,0,1-19.3,19.3H1334a6.43,6.43,0,0,1-6.44-6.43V219.26a3.21,3.21,0,0,0-3.22-3.21H1068.52a3.22,3.22,0,0,0-3.22,3.21V277.7A19.3,19.3,0,0,1,1046,297h-11.73a6.42,6.42,0,0,1-6.43-6.43V113.91a19.3,19.3,0,0,1,19.3-19.3h11.73a6.43,6.43,0,0,1,6.43,6.44v71.3a3.22,3.22,0,0,0,3.22,3.22h255.84a3.21,3.21,0,0,0,3.22-3.22V113.91A19.3,19.3,0,0,1,1346.89,94.61Z" transform="translate(-76.23 -94.61)"/><path class="cls-2" d="M1586.48,94.61h11.74a6.43,6.43,0,0,1,6.43,6.44V277.7a19.3,19.3,0,0,1-19.3,19.3h-11.74a6.43,6.43,0,0,1-6.43-6.43V113.91A19.3,19.3,0,0,1,1586.48,94.61Z" transform="translate(-76.23 -94.61)"/><path class="cls-2" d="M2086,285.1a10.55,10.55,0,0,1-10.45,12h-17.07a38.66,38.66,0,0,1-23.57-8l-84.32-65a38.54,38.54,0,0,0-23.56-8H1789.58a3.22,3.22,0,0,0-3.22,3.21V277.7a19.3,19.3,0,0,1-19.3,19.3h-11.73a6.43,6.43,0,0,1-6.43-6.43V198.08a19.29,19.29,0,0,1,19.3-19.29h260.21a20.25,20.25,0,0,0,20.23-20.87c-.34-11.07-10-22.83-21.08-22.83H1768.2a19.29,19.29,0,0,1-19.3-19.3V101.05a6.43,6.43,0,0,1,6.43-6.44H2025.4c34.26,0,61.9,31.61,60.67,66.15-1.17,32.9-29.22,55.28-62.14,55.28h-17.34a1.79,1.79,0,0,0-1.09,3.2l76.13,58.68A11.15,11.15,0,0,1,2086,285.1Z" transform="translate(-76.23 -94.61)"/></g></svg>